<svg xmlns="http://www.w3.org/2000/svg" width="65.976" height="13.605" viewBox="0 0 65.976 13.605">
  <g id="Layer_1" transform="translate(5)">
    <g id="Grupo_3" data-name="Grupo 3" transform="translate(-5 0)">
      <path id="Caminho_8" data-name="Caminho 8" d="M14.594,0H5.58C1.827,0,0,1.075,0,3.284v7.128C0,12.562,1.765,13.6,5.392,13.6h9.172c.417,0,.6-.2.6-.662,0-.6-.322-.675-.6-.675H5.47c-2.422,0-3.654-.656-3.654-1.947V7.53H14.563c.281,0,.571-.077.571-.652,0-.609-.3-.685-.571-.685H1.817V3.284c0-1.308,1.495-1.947,4.567-1.947h8.21c.281,0,.571-.077.571-.646C15.165.08,14.861,0,14.594,0Z" transform="translate(0 0)" fill="rgba(255,255,255,0.7)"/>
      <path id="Caminho_9" data-name="Caminho 9" d="M164.4,13.514a1,1,0,0,0,1.026-.116.587.587,0,0,0,.267-.5.8.8,0,0,0-.188-.446l-.188-.263h.044L158.383.659a1.531,1.531,0,0,0-.558-.5,1.354,1.354,0,0,0-1.3.007,1.531,1.531,0,0,0-.537.5l-7.1,11.786h0a.528.528,0,0,0-.106.2,1.032,1.032,0,0,0-.027.206.611.611,0,0,0,.274.522,1.027,1.027,0,0,0,.626.216,1.008,1.008,0,0,0,.393-.073.611.611,0,0,0,.263-.253l2.227-3.74h9.336l2.1,3.521.123.19a.646.646,0,0,0,.3.266ZM153.327,8.223l3.883-6.515L161.1,8.223h-7.769Z" transform="translate(-99.721 -0.001)" fill="rgba(255,255,255,0.7)"/>
      <path id="Caminho_10" data-name="Caminho 10" d="M70.287,10.889c.1.1.366.1.725.1h.144c.359,0,.623,0,.725-.1a.508.508,0,0,0,.089-.352V3.377C71.97,1.1,70.219,0,66.623,0H55.892c-.493,0-.712.226-.712.729,0,.448.219.647.712.647H66.575c2.4,0,3.623.674,3.623,2v7.16a.507.507,0,0,0,.089.356Z" transform="translate(-36.988 0)" fill="rgba(255,255,255,0.7)"/>
      <path id="Caminho_11" data-name="Caminho 11" d="M89.14,13.6h10.875c3.63,0,5.392-1.145,5.392-3.5V3.284c0-2.21-1.748-3.284-5.344-3.284H96.016c-.493,0-.712.22-.712.709,0,.443.212.629.712.629h4c2.4,0,3.623.656,3.623,1.947v6.822c0,1.434-1.235,2.16-3.671,2.16H90.437V4.4c0-.463-.2-.589-.931-.589s-.886.116-.886.589v8.662C88.62,13.443,88.777,13.6,89.14,13.6Z" transform="translate(-59.403 0)" fill="rgba(255,255,255,0.7)"/>
      <path id="Caminho_12" data-name="Caminho 12" d="M65,21.051c.079-.079.079-.287.079-.547v-.109c0-.26,0-.469-.079-.547a.568.568,0,0,0-.38-.086H57.5V11.677c0-.558-.284-.807-.917-.807s-.9.25-.9.807v8.9c0,.387.157.554.523.554h8.416A.562.562,0,0,0,65,21.051Z" transform="translate(-37.236 -7.533)" fill="rgba(255,255,255,0.7)"/>
    </g>
  </g>
</svg>
