<svg xmlns="http://www.w3.org/2000/svg" width="128.023" height="26" viewBox="0 0 128.023 26">
  <g id="Grupo_194" data-name="Grupo 194" transform="translate(-677.477 -2)">
    <g id="Layer_1" transform="translate(673.29 2.533)">
      <g id="Grupo_32" data-name="Grupo 32">
        <g id="Grupo_31" data-name="Grupo 31" transform="translate(-20 -258.596)">
          <path id="Caminho_145" data-name="Caminho 145" d="M57.33,283.95V273.364h3.112l.129,1.334a3.391,3.391,0,0,1,1.258-1.185,3.489,3.489,0,0,1,1.661-.4,4.014,4.014,0,0,1,2.169.54,3.107,3.107,0,0,1,1.258,1.641,3.771,3.771,0,0,1,1.334-1.621,3.361,3.361,0,0,1,1.907-.56,3.511,3.511,0,0,1,2.87,1.165,5.565,5.565,0,0,1,.943,3.62v6.055h-3.3v-5.418a4.018,4.018,0,0,0-.181-1.342,1.45,1.45,0,0,0-.52-.73,1.538,1.538,0,0,0-.8-.254,1.692,1.692,0,0,0-1.387.52,2.416,2.416,0,0,0-.476,1.641v5.587H64v-5.418a4.018,4.018,0,0,0-.181-1.342,1.45,1.45,0,0,0-.52-.73,1.539,1.539,0,0,0-.8-.254,1.692,1.692,0,0,0-1.387.52,2.416,2.416,0,0,0-.476,1.641v5.587h-3.3Z" transform="translate(0 -5.891)" fill="rgba(255,255,255,0.7)"/>
          <path id="Caminho_146" data-name="Caminho 146" d="M105.8,284.21a5.908,5.908,0,0,1-2.923-.71,5.139,5.139,0,0,1-1.991-1.959,6.127,6.127,0,0,1,.012-5.777,5.128,5.128,0,0,1,2-1.947,5.982,5.982,0,0,1,2.943-.7,5.175,5.175,0,0,1,2.709.718,5.012,5.012,0,0,1,1.915,2.137,7.889,7.889,0,0,1,.71,3.535h-7.958l.359-.4a2.593,2.593,0,0,0,.3,1.27,1.988,1.988,0,0,0,.826.835,2.466,2.466,0,0,0,1.185.286,2.377,2.377,0,0,0,1.322-.351,1.866,1.866,0,0,0,.75-.879l2.923,1a4.328,4.328,0,0,1-1.2,1.649,5.115,5.115,0,0,1-1.766.976,6.879,6.879,0,0,1-2.116.318Zm-2.137-6.478-.339-.423h4.741l-.3.423a2.175,2.175,0,0,0-.318-1.25,1.812,1.812,0,0,0-.782-.665,2.351,2.351,0,0,0-.931-.2,2.438,2.438,0,0,0-.943.2,1.839,1.839,0,0,0-.8.665,2.136,2.136,0,0,0-.327,1.25Z" transform="translate(-25.57 -5.897)" fill="rgba(255,255,255,0.7)"/>
          <path id="Caminho_147" data-name="Caminho 147" d="M132.151,284.2a5.943,5.943,0,0,1-1.939-.306,4.712,4.712,0,0,1-1.556-.867,3.44,3.44,0,0,1-.976-1.367l2.709-1.145a1.848,1.848,0,0,0,.762.814,2.061,2.061,0,0,0,1,.266,1.621,1.621,0,0,0,.826-.181.559.559,0,0,0,.3-.5.587.587,0,0,0-.306-.528,3.121,3.121,0,0,0-.879-.339l-.911-.234a4.474,4.474,0,0,1-2.274-1.258,2.956,2.956,0,0,1-.794-2.044,3.037,3.037,0,0,1,1.121-2.52,4.9,4.9,0,0,1,3.112-.891,5.941,5.941,0,0,1,1.979.3,4.007,4.007,0,0,1,1.439.834,3.105,3.105,0,0,1,.834,1.258l-2.624,1.08a1.125,1.125,0,0,0-.6-.645,2.236,2.236,0,0,0-1-.222,1.127,1.127,0,0,0-.718.2.652.652,0,0,0-.254.54.514.514,0,0,0,.306.435,3.445,3.445,0,0,0,.9.327l1.121.274a4.554,4.554,0,0,1,1.673.774,3.455,3.455,0,0,1,1.016,1.205,3.285,3.285,0,0,1,.339,1.471,2.688,2.688,0,0,1-.581,1.725,3.707,3.707,0,0,1-1.621,1.133,6.631,6.631,0,0,1-2.391.4Z" transform="translate(-41.99 -5.891)" fill="rgba(255,255,255,0.7)"/>
          <path id="Caminho_148" data-name="Caminho 148" d="M152.11,278.059V263.24h3.3v14.819Zm6.817-5.422a3.892,3.892,0,0,0-.189-1.342,1.449,1.449,0,0,0-.552-.73,1.714,1.714,0,0,0-.847-.254,1.775,1.775,0,0,0-1.439.52,2.375,2.375,0,0,0-.488,1.641h-1a7.144,7.144,0,0,1,.508-2.846,4.124,4.124,0,0,1,1.387-1.79,3.419,3.419,0,0,1,2.02-.613,4.143,4.143,0,0,1,2.161.52,3.183,3.183,0,0,1,1.3,1.576,7.188,7.188,0,0,1,.435,2.709v.613h-3.3Zm0,5.422v-5.418h3.3v5.418Z" transform="translate(-56.571 0)" fill="rgba(255,255,255,0.7)"/>
        </g>
        <path id="Caminho_155" data-name="Caminho 155" d="M27.439,12,23.014,6.1,18.588.2A.492.492,0,0,0,17.8.2L14.162,5.045a.488.488,0,0,1-.786,0L9.737.2A.492.492,0,0,0,8.95.2L4.525,6.1.1,12a.5.5,0,0,0,0,.59l4.425,5.9a.492.492,0,0,0,.787,0L8.952,13.64a.488.488,0,0,1,.786,0l3.639,4.848a.492.492,0,0,0,.787,0L17.8,13.64a.488.488,0,0,1,.786,0l3.639,4.848a.492.492,0,0,0,.787,0l4.425-5.9a.5.5,0,0,0,0-.59ZM18.588,1.839l3.2,4.258a.5.5,0,0,1,0,.59l-3.2,4.258a.488.488,0,0,1-.786,0l-3.2-4.258a.5.5,0,0,1,0-.59l3.2-4.258a.488.488,0,0,1,.786,0Zm-8.85,0,3.2,4.258a.5.5,0,0,1,0,.59l-3.2,4.258a.488.488,0,0,1-.786,0l-3.2-4.258a.5.5,0,0,1,0-.59l3.2-4.258a.488.488,0,0,1,.786,0ZM4.526,16.846l-3.2-4.258a.5.5,0,0,1,0-.59l3.2-4.258a.488.488,0,0,1,.786,0L8.509,12a.5.5,0,0,1,0,.59l-3.2,4.258a.488.488,0,0,1-.786,0Zm8.85,0-3.2-4.258a.5.5,0,0,1,0-.59l3.2-4.258a.488.488,0,0,1,.786,0L17.359,12a.5.5,0,0,1,0,.59l-3.2,4.258A.488.488,0,0,1,13.376,16.846Zm8.85,0-3.2-4.258a.5.5,0,0,1,0-.59l3.2-4.258a.488.488,0,0,1,.786,0L26.209,12a.5.5,0,0,1,0,.59l-3.2,4.258A.488.488,0,0,1,22.226,16.846Z" transform="translate(4.182 2.838)" fill="rgba(255,255,255,0.7)"/>
      </g>
    </g>
    <text id="_-sdk" data-name="-sdk" transform="translate(760.5 22)" fill="rgba(255,255,255,0.7)" font-size="20" font-family="Geist" font-weight="700"><tspan x="0" y="0">-sdk</tspan></text>
  </g>
</svg>
