<svg xmlns="http://www.w3.org/2000/svg" width="42" height="50.718" viewBox="0 0 42 50.718">
  <path id="Caminho_156" data-name="Caminho 156" d="M221.036,212.547l21-21-21-21L202.491,189.09l5.422,5.422,13.123-13.122,8.906,8.906-8.906,8.906-6.845-6.844-1.062,1.062,7.907,7.907L232.066,190.3l-11.031-11.031-13.123,13.123-3.3-3.3,16.419-16.418,18.874,18.875-18.874,18.874-15.579-15.579-5.421,5.421,21,21,21-21-3.046-3.047-1.063,1.063,1.984,1.984-18.874,18.875L202.16,200.264l3.3-3.3Z" transform="translate(-200.035 -170.547)" fill="#0e1b2e"/>
</svg>
