<svg xmlns="http://www.w3.org/2000/svg" width="24.522" height="29.612" viewBox="0 0 24.522 29.612">
  <path id="Caminho_144" data-name="Caminho 144" d="M212.3,195.069l12.261-12.261L212.3,170.547l-10.828,10.827,3.166,3.166,7.662-7.662,5.2,5.2-5.2,5.2-4-4-.62.62,4.617,4.616,6.44-6.441-6.44-6.441-7.662,7.662-1.925-1.925,9.587-9.586,11.02,11.02-11.02,11.02-9.1-9.1-3.165,3.165L212.3,200.159,224.557,187.9l-1.779-1.779-.62.621,1.158,1.158-11.02,11.02-11.02-11.02,1.924-1.924Z" transform="translate(-200.035 -170.547)" fill="rgba(255,255,255,0.7)"/>
</svg>
